<svg width="17" height="122" viewBox="0 0 17 122" fill="none" xmlns="http://www.w3.org/2000/svg">
<rect x="8.01465" y="79.6938" width="1" height="41" fill="#A0A0A0"/>
<rect x="0.736572" y="114.222" width="1" height="11" transform="rotate(-45 0.736572 114.222)" fill="#A0A0A0"/>
<rect x="16.2928" y="112.808" width="1" height="11" transform="rotate(45 16.2928 112.808)" fill="#A0A0A0"/>
<path d="M2.59657 5.24385C2.59657 7.45585 3.95457 8.92585 5.69057 8.92585C7.69257 8.92585 8.36457 7.70785 8.68657 5.35585C8.93857 3.61985 9.34457 3.28385 10.1566 3.28385C10.9266 3.28385 11.4726 3.87185 11.4726 5.00585C11.4726 6.15385 11.0246 6.75585 9.97457 6.93785L9.97457 8.64585C11.8926 8.44985 12.8726 7.16185 12.8726 5.00585C12.8726 2.91985 11.6406 1.51985 10.0026 1.51985C8.12657 1.51985 7.39857 2.65385 7.07657 5.04785C6.81057 6.67185 6.46057 7.13385 5.53657 7.13385C4.61257 7.13385 3.99657 6.34985 3.99657 5.24385C3.99657 3.54985 4.83657 3.14385 5.84457 3.01785L5.84457 1.22585C3.95457 1.36585 2.59657 2.51385 2.59657 5.24385ZM2.59657 16.4422C2.59657 18.8222 3.81457 20.5302 6.22257 20.8242L6.22257 19.0042C4.80857 18.8082 4.10857 17.8282 4.10857 16.4422C4.10857 14.5942 5.43857 13.5162 7.69257 13.5162L7.80457 13.5162C10.0446 13.5162 11.4166 14.6642 11.4166 16.4282C11.4166 17.8702 10.7306 18.6122 9.40057 18.8222L9.40057 20.7122C11.7526 20.4882 12.9006 18.7102 12.9006 16.4142C12.9006 13.6282 10.8006 11.5562 7.79057 11.5562L7.67857 11.5562C4.59857 11.5562 2.59657 13.3062 2.59657 16.4422ZM2.73657 23.8372L2.73657 25.6992L6.78257 25.6992L6.78257 26.8892L2.73657 29.5072L2.73657 31.5232L7.06257 28.7092C7.38457 29.9552 8.18257 30.9352 9.75057 30.9352L9.80657 30.9352C11.8506 30.9352 12.7466 29.3952 12.7466 27.1972L12.7466 23.8372L2.73657 23.8372ZM8.11257 25.6992L11.3046 25.6992L11.3046 27.1972C11.3046 28.3872 10.9126 29.1012 9.76457 29.1012L9.70857 29.1012C8.64457 29.1012 8.11257 28.4432 8.11257 27.1972L8.11257 25.6992ZM4.09457 38.8663C4.09457 37.0463 5.50857 35.7163 7.69257 35.7163L7.80457 35.7163C9.96057 35.7163 11.4026 36.8783 11.4026 38.8383C11.4026 40.7983 9.87657 41.9463 7.81857 41.9463L7.70657 41.9463C5.53657 41.9463 4.09457 40.7563 4.09457 38.8663ZM2.59657 38.8383C2.59657 41.8763 4.79457 43.8783 7.72057 43.8783L7.83257 43.8783C10.7726 43.8783 12.8866 41.8203 12.8866 38.8383C12.8866 35.8703 10.7166 33.7703 7.79057 33.7703L7.67857 33.7703C4.79457 33.7703 2.59657 35.7723 2.59657 38.8383ZM2.73657 47.0766L2.73657 53.2086L4.22057 53.2086L4.22057 48.9386L12.7466 48.9386L12.7466 47.0766L2.73657 47.0766ZM2.73657 56.1876L2.73657 62.3196L4.22057 62.3196L4.22057 58.0496L12.7466 58.0496L12.7466 56.1876L2.73657 56.1876Z" fill="#A0A0A0"/>
</svg>
